<svg width="145" height="37" viewBox="0 0 145 37" fill="none" xmlns="http://www.w3.org/2000/svg">
<g clip-path="url(#clip0)">
<path d="M144.998 0H63.5254V23.2974H144.998V0Z" fill="#262262"/>
<path d="M10.9558 23.5646L2.81366 3.42172C2.40634 2.42775 2.00343 1.76363 1.60496 1.42714C1.2087 1.09066 0.672977 0.906915 0 0.873709V0.0302734H11.9321V0.891419H11.7328C11.0156 0.891419 10.502 0.984396 10.1943 1.17256C9.88435 1.36073 9.7316 1.66844 9.7316 2.10012C9.7316 2.22188 9.7471 2.35027 9.7803 2.48974C9.81351 2.62699 9.87328 2.82844 9.96183 3.09409L14.5465 14.4771L18.9828 3.66966C19.0935 3.40401 19.171 3.16714 19.2153 2.95905C19.2595 2.74875 19.2817 2.55615 19.2817 2.37905C19.2817 1.90531 19.0802 1.54669 18.6773 1.30317C18.2744 1.05966 17.6546 0.917983 16.8156 0.873709V0.0302734H23.6671V0.873709C23.0937 0.895846 22.5558 1.12829 22.0533 1.56882C21.5508 2.00936 21.139 2.61814 20.8202 3.38852L12.4124 23.5623H10.9558V23.5646Z" fill="#F58220"/>
<path d="M34.3398 18.8471C34.3398 20.027 34.5611 20.8638 35.0017 21.3552C35.4422 21.8467 36.2037 22.119 37.2863 22.1743V23.0178H24.2451V22.1743C25.3254 22.1301 26.0869 21.86 26.5297 21.3641C26.9702 20.8682 27.1916 20.0292 27.1916 18.8493V4.20096C27.1916 3.02104 26.968 2.18203 26.5208 1.68615C26.0737 1.19027 25.3144 0.920197 24.2451 0.875923V0.0302734H37.2863V0.891419C36.1949 0.946762 35.4289 1.21684 34.995 1.70165C34.5589 2.18646 34.342 3.02104 34.342 4.20096V18.8471H34.3398Z" fill="#F58220"/>
<path d="M41.1228 4.20096C41.1228 3.02104 40.8992 2.18203 40.452 1.68615C40.0048 1.19027 39.2455 0.920197 38.1763 0.875922V0.0302734H47.7263L58.6489 13.3858V4.20096C58.6489 3.02104 58.432 2.18867 57.9959 1.70165C57.5598 1.21684 56.796 0.946762 55.7047 0.891418V0.0302734H63.1517V0.873708C62.0824 0.917983 61.3231 1.18806 60.8759 1.68394C60.4288 2.17982 60.2052 3.01882 60.2052 4.19875V23.0155H57.624L42.679 4.80974V18.8448C42.679 20.0248 42.9004 20.8616 43.3409 21.353C43.7815 21.8445 44.543 22.1168 45.6255 22.1721V23.0155H38.1785V22.1721C39.2477 22.1389 40.007 21.871 40.4542 21.3685C40.9014 20.866 41.125 20.0248 41.125 18.8448V4.20096H41.1228Z" fill="#F58220"/>
<path d="M76.7838 18.932V14.7879C76.7838 13.9467 76.6333 13.3623 76.33 13.0391C76.0267 12.7159 75.4755 12.5233 74.6763 12.4635L74.6631 11.7949H83.5689V12.4635C82.9115 12.5388 82.4444 12.7557 82.1676 13.1143C81.8887 13.473 81.7515 14.0552 81.7515 14.8632V18.7417C80.3878 19.3482 79.1215 19.7976 77.9549 20.0943C76.7882 20.3887 75.6924 20.537 74.6653 20.537C71.7608 20.537 69.4475 19.6891 67.7296 17.9912C66.0118 16.2955 65.1528 14.0109 65.1528 11.1397C65.1528 9.59891 65.4362 8.21532 66.0051 6.99112C66.5741 5.76693 67.402 4.76189 68.4867 3.97822C69.3457 3.37166 70.271 2.91563 71.265 2.60792C72.2589 2.30021 73.3149 2.14746 74.435 2.14746C75.0327 2.14746 75.6238 2.20059 76.2105 2.30464C76.7949 2.4109 77.4369 2.588 78.1364 2.84258C78.2869 2.89349 78.5017 2.98204 78.7806 3.10822C79.2853 3.32738 79.6573 3.43586 79.8919 3.43586C80.1708 3.43586 80.3922 3.34067 80.5605 3.1525C80.7287 2.96212 80.8261 2.70311 80.8505 2.37548H81.4194V7.98288H80.8261C80.5228 6.58601 79.9163 5.47693 79.0064 4.66006C78.0966 3.84319 77.0185 3.43586 75.7721 3.43586C74.2137 3.43586 73.005 4.13097 72.146 5.51899C71.2871 6.907 70.8576 8.87059 70.8576 11.4053C70.8576 14.0419 71.2074 16.021 71.907 17.3426C72.6065 18.6642 73.6536 19.3261 75.0527 19.3261C75.3382 19.3172 75.626 19.2818 75.9116 19.2198C76.1994 19.1534 76.4894 19.0582 76.7838 18.932Z" fill="white"/>
<path d="M95.1358 9.02393C93.9403 7.79973 92.3907 7.18652 90.4869 7.18652C88.5919 7.18652 87.0445 7.80194 85.8447 9.03057C84.6448 10.2592 84.0449 11.8509 84.0449 13.8056C84.0449 15.7426 84.6493 17.3321 85.858 18.574C87.0667 19.8159 88.6097 20.438 90.4869 20.438C92.3907 20.438 93.9403 19.8226 95.1358 18.5939C96.3312 17.3653 96.9289 15.7692 96.9289 13.8056C96.9311 11.842 96.3312 10.2481 95.1358 9.02393ZM91.7775 18.3261C91.534 19.1097 91.1045 19.5016 90.4891 19.5016C89.8826 19.5016 89.4597 19.1186 89.2206 18.3526C88.9816 17.5867 88.8598 16.0791 88.8598 13.83C88.8598 11.5476 88.9793 10.0334 89.2206 9.28958C89.4619 8.54576 89.8848 8.17164 90.4891 8.17164C91.1045 8.17164 91.534 8.56126 91.7775 9.34049C92.021 10.1197 92.1428 11.6162 92.1428 13.83C92.1428 16.0437 92.021 17.5424 91.7775 18.3261Z" fill="white"/>
<path d="M85.8555 4.2723C85.8555 3.79191 86.0392 3.37573 86.4045 3.02153C86.7697 2.66733 87.197 2.49023 87.6862 2.49023C88.191 2.49023 88.616 2.66291 88.9613 3.00825C89.3067 3.35359 89.4794 3.7742 89.4794 4.2723C89.4794 4.80359 89.3111 5.2397 88.9746 5.58504C88.6381 5.93039 88.2087 6.10306 87.6862 6.10306C87.1815 6.10306 86.7498 5.92596 86.3912 5.57176C86.0326 5.21756 85.8555 4.78588 85.8555 4.2723Z" fill="#F15A29"/>
<path d="M91.4941 4.2723C91.4941 3.79191 91.6735 3.37573 92.0321 3.02153C92.3907 2.66733 92.8179 2.49023 93.3138 2.49023C93.8097 2.49023 94.2347 2.66291 94.5889 3.00825C94.9431 3.35359 95.1202 3.7742 95.1202 4.2723C95.1202 4.80359 94.9476 5.2397 94.6022 5.58504C94.2569 5.93039 93.8274 6.10306 93.3138 6.10306C92.8002 6.10306 92.3686 5.92596 92.0188 5.57176C91.669 5.21978 91.4941 4.78588 91.4941 4.2723Z" fill="#F15A29"/>
<path d="M105.328 16.935C105.328 17.7098 105.456 18.2478 105.713 18.551C105.97 18.8543 106.419 19.0049 107.059 19.0049C108.414 19.0049 109.536 18.509 110.426 17.515C111.314 16.521 111.894 15.1197 112.164 13.3089L112.883 13.3975L112.215 20.1184H97.626V19.4742C98.4428 19.4498 99.0228 19.2439 99.3638 18.861C99.7047 18.478 99.8751 17.836 99.8751 16.935V5.75563C99.8751 4.85463 99.7047 4.21486 99.3638 3.83631C99.0228 3.45776 98.4428 3.25188 97.626 3.21646V2.57227H107.579V3.21646C106.753 3.25853 106.173 3.46662 105.837 3.84074C105.5 4.21486 105.332 4.85242 105.332 5.75341V16.935H105.328Z" fill="white"/>
<path d="M115.916 7.5C118.138 7.5 119.94 9.30199 119.94 11.5246V17.4773C119.94 18.0839 120.053 18.5444 120.281 18.8609C120.509 19.1775 120.879 19.3966 121.393 19.525V20.1183H113.839V19.525C114.362 19.3989 114.734 19.1775 114.957 18.8609C115.181 18.5444 115.292 18.0839 115.292 17.4773V10.2163C115.292 9.54328 115.181 9.04076 114.957 8.71313C114.734 8.3855 114.362 8.1774 113.839 8.09328V7.5H115.916Z" fill="white"/>
<path d="M128.277 17.4802C128.277 18.0956 128.425 18.5649 128.727 18.8881C129.025 19.2113 129.508 19.4261 130.172 19.5257V20.119H122.203V19.5257C122.749 19.3995 123.141 19.1803 123.378 18.8682C123.613 18.5561 123.732 18.0934 123.732 17.478V8.8643H122.205V7.50064H123.708V7.41209C123.708 5.53483 124.124 4.14682 124.959 3.25025C125.793 2.35369 127.088 1.9043 128.848 1.9043C129.951 1.9043 130.819 2.11682 131.449 2.54185C132.08 2.96689 132.397 3.54247 132.397 4.26636C132.397 4.76224 132.242 5.15407 131.93 5.44186C131.618 5.72743 131.193 5.87132 130.655 5.87132C130.117 5.87132 129.705 5.72743 129.424 5.44186C129.143 5.15628 129.001 4.73567 129.001 4.17781C129.001 4.04277 129.005 3.89445 129.014 3.72842C129.023 3.5646 129.028 3.47384 129.028 3.45613C129.028 3.27018 128.999 3.12628 128.939 3.02002C128.879 2.91598 128.8 2.86285 128.7 2.86285C128.556 2.86285 128.452 2.94033 128.383 3.0975C128.315 3.25247 128.282 3.49598 128.282 3.82361V7.49842H130.227V8.86209H128.282V17.4802H128.277Z" fill="white"/>
<path d="M142.79 16.2912C142.244 17.6305 141.493 18.6555 140.541 19.3661C139.589 20.0767 138.482 20.4331 137.218 20.4331C135.441 20.4331 133.997 19.8221 132.886 18.6023C131.775 17.3826 131.219 15.7909 131.219 13.8273C131.219 13.0613 131.319 12.3397 131.516 11.66C131.713 10.9826 132.003 10.3606 132.381 9.79607C132.937 8.9792 133.645 8.33943 134.504 7.87676C135.363 7.41408 136.278 7.18164 137.245 7.18164C138.903 7.18164 140.203 7.72179 141.141 8.80431C142.08 9.88683 142.576 11.4032 142.624 13.358L135.828 13.3713C135.888 14.7438 136.222 15.8329 136.833 16.6365C137.444 17.4401 138.237 17.843 139.215 17.843C139.753 17.843 140.256 17.6792 140.718 17.3494C141.181 17.0217 141.602 16.5369 141.982 15.8971L142.79 16.2912ZM135.806 12.3507H138.673C138.655 11.0026 138.527 9.9776 138.288 9.27584C138.049 8.57187 137.701 8.2221 137.245 8.2221C136.798 8.2221 136.45 8.58073 136.196 9.29576C135.943 10.0108 135.813 11.0291 135.806 12.3507Z" fill="white"/>
<path d="M120.243 1.24453C118.796 0.859337 117.189 1.23125 116.053 2.36689C114.917 3.50254 114.543 5.10972 114.931 6.5575C116.378 6.9427 117.985 6.57079 119.121 5.43514C120.257 4.29949 120.629 2.69231 120.243 1.24453Z" fill="#8DC63F"/>
<path d="M141.909 1.90625C142.182 1.90625 142.441 1.97488 142.691 2.10991C142.941 2.24495 143.136 2.43976 143.278 2.69434C143.419 2.94671 143.492 3.21236 143.492 3.48907C143.492 3.76358 143.421 4.02701 143.282 4.27717C143.143 4.52732 142.948 4.72213 142.698 4.86159C142.447 5.00106 142.184 5.0719 141.909 5.0719C141.635 5.0719 141.372 5.00106 141.121 4.86159C140.871 4.72213 140.676 4.52732 140.537 4.27717C140.398 4.02701 140.327 3.76358 140.327 3.48907C140.327 3.21236 140.397 2.94671 140.541 2.69434C140.683 2.44198 140.88 2.24717 141.128 2.10991C141.376 1.97266 141.637 1.90625 141.909 1.90625ZM141.909 2.21396C141.693 2.21396 141.484 2.2693 141.283 2.37778C141.084 2.48625 140.927 2.64343 140.811 2.84709C140.696 3.05075 140.639 3.26327 140.639 3.48686C140.639 3.70823 140.694 3.92075 140.807 4.11999C140.92 4.31923 141.075 4.47862 141.276 4.59152C141.478 4.70442 141.688 4.75976 141.907 4.75976C142.129 4.75976 142.339 4.70442 142.54 4.59152C142.74 4.47862 142.897 4.32144 143.01 4.11999C143.123 3.91854 143.18 3.70823 143.18 3.48686C143.18 3.26327 143.123 3.05075 143.007 2.84709C142.892 2.64343 142.735 2.48625 142.534 2.37778C142.337 2.2693 142.129 2.21396 141.909 2.21396ZM141.194 4.33472V2.65671H141.535C141.854 2.65671 142.033 2.65892 142.073 2.66114C142.186 2.66999 142.275 2.69213 142.337 2.72755C142.399 2.76297 142.452 2.8161 142.494 2.88915C142.536 2.9622 142.556 3.0419 142.556 3.13045C142.556 3.2522 142.516 3.35625 142.436 3.44037C142.357 3.52671 142.246 3.57984 142.102 3.59976C142.153 3.61969 142.193 3.63961 142.219 3.66175C142.246 3.68388 142.286 3.72816 142.332 3.79014C142.346 3.80564 142.385 3.87427 142.456 3.99381L142.656 4.33251H142.235L142.095 4.06022C142 3.87648 141.923 3.76136 141.861 3.71488C141.799 3.66839 141.721 3.64404 141.626 3.64404H141.538V4.33472H141.194ZM141.535 3.3806H141.675C141.872 3.3806 141.994 3.37396 142.042 3.35846C142.089 3.34297 142.126 3.3164 142.155 3.27877C142.182 3.24114 142.197 3.19686 142.197 3.15037C142.197 3.10388 142.184 3.06182 142.157 3.0264C142.131 2.99098 142.093 2.96442 142.042 2.94892C141.991 2.93343 141.872 2.92457 141.677 2.92457H141.538V3.3806H141.535Z" fill="white"/>
<path d="M61.0045 34.4137C61.0045 34.9339 60.8212 35.3423 60.4544 35.6388C60.0877 35.9353 59.5389 36.0835 58.808 36.0835C58.6493 36.0835 58.4894 36.0744 58.3281 36.0562C58.1695 36.0406 58.016 36.0198 57.8677 35.9938C57.7221 35.9678 57.5842 35.9353 57.4542 35.8963C57.3241 35.8547 57.211 35.813 57.1147 35.7714V30.4186C57.3228 30.3275 57.5738 30.2534 57.8677 30.1962C58.1642 30.1364 58.4725 30.1064 58.7924 30.1064C59.1435 30.1064 59.4478 30.1468 59.7053 30.2274C59.9654 30.3054 60.1813 30.4147 60.353 30.5551C60.5273 30.693 60.656 30.8594 60.7392 31.0545C60.8225 31.247 60.8641 31.4577 60.8641 31.6866C60.8641 31.853 60.8394 32.0065 60.79 32.1469C60.7431 32.2874 60.6781 32.4135 60.5949 32.5254C60.5117 32.6372 60.418 32.7309 60.314 32.8063C60.2099 32.8817 60.102 32.935 59.9902 32.9662V32.9819C60.102 33.0183 60.2177 33.0755 60.3374 33.1535C60.457 33.2315 60.5663 33.3291 60.6651 33.4461C60.7639 33.5632 60.8446 33.7023 60.907 33.8636C60.972 34.0222 61.0045 34.2056 61.0045 34.4137ZM59.8302 31.7919C59.8302 31.5292 59.7457 31.325 59.5766 31.1794C59.4101 31.0337 59.1487 30.9609 58.7924 30.9609C58.6701 30.9609 58.5505 30.97 58.4335 30.9882C58.3164 31.0064 58.2202 31.0285 58.1447 31.0545V32.6463H58.8236C59.0109 32.6463 59.1604 32.632 59.2723 32.6034C59.3841 32.5722 59.483 32.5228 59.5688 32.4551C59.6468 32.3849 59.7092 32.2926 59.7561 32.1781C59.8055 32.0637 59.8302 31.9349 59.8302 31.7919ZM59.9433 34.3396C59.9433 34.0144 59.8263 33.7778 59.5922 33.6295C59.5012 33.5697 59.3997 33.5242 59.2879 33.4929C59.176 33.4617 59.0265 33.4461 58.8392 33.4461H58.1447V35.1316C58.2202 35.1576 58.319 35.1797 58.4413 35.1979C58.5635 35.2161 58.6831 35.2252 58.8002 35.2252C59.5623 35.2252 59.9433 34.93 59.9433 34.3396Z" fill="white"/>
<path d="M65.9751 33.095C65.9751 33.5138 65.9308 33.9065 65.8424 34.2732C65.754 34.6374 65.62 34.9534 65.4405 35.2213C65.2637 35.4866 65.04 35.6973 64.7695 35.8534C64.5016 36.0068 64.1869 36.0835 63.8253 36.0835C63.4638 36.0835 63.1478 36.0068 62.8773 35.8534C62.6094 35.6973 62.3857 35.4866 62.2062 35.2213C62.0293 34.9534 61.8967 34.6374 61.8083 34.2732C61.7198 33.9065 61.6756 33.5138 61.6756 33.095C61.6756 32.6736 61.7198 32.2809 61.8083 31.9167C61.8967 31.55 62.0293 31.234 62.2062 30.9687C62.3857 30.7008 62.6094 30.4901 62.8773 30.3366C63.1478 30.1832 63.4638 30.1064 63.8253 30.1064C64.1869 30.1064 64.5016 30.1832 64.7695 30.3366C65.04 30.4901 65.2637 30.7008 65.4405 30.9687C65.62 31.234 65.754 31.55 65.8424 31.9167C65.9308 32.2809 65.9751 32.6736 65.9751 33.095ZM64.8865 33.095C64.8865 32.7959 64.8631 32.5241 64.8163 32.2796C64.7721 32.0351 64.7058 31.8257 64.6173 31.6514C64.5315 31.4772 64.421 31.3432 64.2857 31.2496C64.1531 31.1533 63.9996 31.1052 63.8253 31.1052C63.6485 31.1052 63.4937 31.1533 63.361 31.2496C63.2284 31.3432 63.1179 31.4772 63.0294 31.6514C62.941 31.8257 62.8747 32.0351 62.8304 32.2796C62.7862 32.5241 62.7641 32.7959 62.7641 33.095C62.7641 33.3915 62.7862 33.6633 62.8304 33.9104C62.8747 34.1549 62.941 34.3643 63.0294 34.5385C63.1179 34.7102 63.2284 34.8442 63.361 34.9404C63.4937 35.0366 63.6485 35.0848 63.8253 35.0848C63.9996 35.0848 64.1531 35.0366 64.2857 34.9404C64.421 34.8442 64.5315 34.7102 64.6173 34.5385C64.7058 34.3643 64.7721 34.1549 64.8163 33.9104C64.8631 33.6633 64.8865 33.3915 64.8865 33.095Z" fill="white"/>
<path d="M70.9768 33.095C70.9768 33.5138 70.9326 33.9065 70.8441 34.2732C70.7557 34.6374 70.6217 34.9534 70.4423 35.2213C70.2654 35.4866 70.0417 35.6973 69.7712 35.8534C69.5033 36.0068 69.1886 36.0835 68.8271 36.0835C68.4655 36.0835 68.1495 36.0068 67.879 35.8534C67.6111 35.6973 67.3874 35.4866 67.2079 35.2213C67.0311 34.9534 66.8984 34.6374 66.81 34.2732C66.7215 33.9065 66.6773 33.5138 66.6773 33.095C66.6773 32.6736 66.7215 32.2809 66.81 31.9167C66.8984 31.55 67.0311 31.234 67.2079 30.9687C67.3874 30.7008 67.6111 30.4901 67.879 30.3366C68.1495 30.1832 68.4655 30.1064 68.8271 30.1064C69.1886 30.1064 69.5033 30.1832 69.7712 30.3366C70.0417 30.4901 70.2654 30.7008 70.4423 30.9687C70.6217 31.234 70.7557 31.55 70.8441 31.9167C70.9326 32.2809 70.9768 32.6736 70.9768 33.095ZM69.8883 33.095C69.8883 32.7959 69.8649 32.5241 69.818 32.2796C69.7738 32.0351 69.7075 31.8257 69.6191 31.6514C69.5332 31.4772 69.4227 31.3432 69.2874 31.2496C69.1548 31.1533 69.0013 31.1052 68.8271 31.1052C68.6502 31.1052 68.4954 31.1533 68.3628 31.2496C68.2301 31.3432 68.1196 31.4772 68.0311 31.6514C67.9427 31.8257 67.8764 32.0351 67.8322 32.2796C67.788 32.5241 67.7658 32.7959 67.7658 33.095C67.7658 33.3915 67.788 33.6633 67.8322 33.9104C67.8764 34.1549 67.9427 34.3643 68.0311 34.5385C68.1196 34.7102 68.2301 34.8442 68.3628 34.9404C68.4954 35.0366 68.6502 35.0848 68.8271 35.0848C69.0013 35.0848 69.1548 35.0366 69.2874 34.9404C69.4227 34.8442 69.5332 34.7102 69.6191 34.5385C69.7075 34.3643 69.7738 34.1549 69.818 33.9104C69.8649 33.6633 69.8883 33.3915 69.8883 33.095Z" fill="white"/>
<path d="M74.7066 35.986L72.9431 33.1106H72.9275V35.986H71.839V30.2001H72.9275V32.8219H72.9431L74.6832 30.2001H75.8966L74.0356 32.9662L75.9395 35.986H74.7066Z" fill="white"/>
<path d="M76.5208 35.986V30.2001H77.6093V35.986H76.5208Z" fill="white"/>
<path d="M81.862 35.986L79.8839 32.5566C79.8345 32.4786 79.789 32.3992 79.7474 32.3186C79.7083 32.238 79.6758 32.1664 79.6498 32.104C79.6186 32.0286 79.5874 31.9532 79.5562 31.8777H79.5367C79.5367 31.9532 79.5406 32.0338 79.5484 32.1196C79.5484 32.1924 79.5497 32.2731 79.5523 32.3615C79.5549 32.4499 79.5562 32.5397 79.5562 32.6307V35.986H78.6276V30.2001H79.5562L81.4952 33.5398C81.5394 33.6204 81.5811 33.701 81.6201 33.7817C81.6591 33.8597 81.6955 33.9312 81.7293 33.9962C81.7657 34.0717 81.7995 34.1458 81.8308 34.2186H81.8464C81.8412 34.1458 81.8386 34.0639 81.8386 33.9728C81.8334 33.8974 81.8308 33.8142 81.8308 33.7231C81.8308 33.6295 81.8308 33.5372 81.8308 33.4461V30.2001H82.7593V35.986H81.862Z" fill="white"/>
<path d="M87.6674 35.7714C87.5191 35.8547 87.3111 35.9275 87.0432 35.9899C86.7779 36.0523 86.4774 36.0835 86.1419 36.0835C85.7544 36.0835 85.4045 36.0146 85.0924 35.8768C84.7803 35.7363 84.515 35.536 84.2965 35.2759C84.078 35.0132 83.9103 34.6985 83.7932 34.3318C83.6762 33.965 83.6176 33.5528 83.6176 33.095C83.6176 32.6346 83.6801 32.2211 83.8049 31.8543C83.9298 31.4876 84.1066 31.1742 84.3355 30.9141C84.5644 30.6514 84.8401 30.4511 85.1626 30.3132C85.4852 30.1754 85.8441 30.1064 86.2394 30.1064C86.5256 30.1064 86.7922 30.1364 87.0393 30.1962C87.289 30.2534 87.4827 30.3275 87.6206 30.4186L87.285 31.2964C87.1784 31.2314 87.038 31.1768 86.8637 31.1325C86.692 31.0857 86.4943 31.0623 86.2707 31.0623C86.0522 31.0623 85.848 31.1026 85.6581 31.1833C85.4709 31.2639 85.3057 31.3887 85.1626 31.5578C85.0222 31.7243 84.9103 31.9336 84.8271 32.1859C84.7465 32.4382 84.7062 32.7387 84.7062 33.0872C84.7062 33.4331 84.7426 33.7335 84.8154 33.9884C84.8908 34.2433 84.991 34.4566 85.1158 34.6283C85.2407 34.7973 85.385 34.9235 85.5489 35.0067C85.7153 35.09 85.887 35.1316 86.0639 35.1316C86.2017 35.1316 86.3227 35.1238 86.4267 35.1082C86.5308 35.0926 86.6062 35.0705 86.653 35.0418V33.4305H85.8064V32.5761H87.6674V35.7714Z" fill="white"/>
</g>
<defs>
<clipPath id="clip0">
<rect width="145" height="36.4625" fill="white"/>
</clipPath>
</defs>
</svg>
