<?xml version="1.0" standalone="no"?>
<!DOCTYPE svg PUBLIC "-//W3C//DTD SVG 20010904//EN"
 "http://www.w3.org/TR/2001/REC-SVG-20010904/DTD/svg10.dtd">
<svg version="1.0" xmlns="http://www.w3.org/2000/svg"
 width="300.000000pt" height="157.000000pt" viewBox="0 0 300.000000 157.000000"
 preserveAspectRatio="xMidYMid meet">

<g transform="translate(0.000000,157.000000) scale(0.100000,-0.100000)"
fill="#000000" stroke="none">
<path d="M2720 1544 c-191 -25 -250 -32 -815 -99 -209 -25 -452 -54 -540 -65
-88 -10 -239 -28 -335 -40 -96 -11 -227 -27 -290 -35 -63 -8 -173 -21 -245
-30 -330 -38 -468 -55 -476 -61 -5 -3 -9 -201 -9 -460 l0 -454 22 0 c12 0 76
7 143 15 111 14 629 76 1465 176 184 22 407 48 495 59 88 11 313 38 500 61
187 22 343 43 347 45 5 3 8 210 8 460 l0 454 -47 -1 c-27 -1 -127 -12 -223
-25z m-460 -234 c23 -12 39 -59 33 -94 -7 -37 -57 -76 -97 -76 -47 0 -76 31
-76 81 0 73 78 122 140 89z m-1040 -369 c0 -260 1 -269 20 -274 16 -4 20 -14
20 -46 0 -35 -4 -43 -26 -51 -45 -18 -111 -12 -127 10 -14 20 -14 20 -33 -1
-41 -47 -137 -64 -193 -34 -74 38 -113 139 -91 237 26 121 115 198 233 198
l37 0 0 105 0 104 33 5 c65 11 82 13 105 15 l22 1 0 -269z m1533 212 c54 -32
71 -75 75 -187 4 -86 7 -99 23 -103 14 -4 19 -15 19 -43 0 -50 -17 -61 -90
-63 -56 -2 -64 1 -86 26 -22 25 -24 37 -24 123 0 53 -5 104 -10 115 -14 25
-64 25 -90 -1 -18 -18 -20 -33 -20 -155 0 -101 -3 -135 -12 -136 -7 0 -20 -2
-28 -3 -8 -2 -39 -6 -67 -10 l-53 -7 0 160 c0 152 -1 161 -21 171 -16 9 -19
19 -17 48 4 55 35 66 168 61 14 -1 43 6 65 15 49 20 123 15 168 -11z m-465
-239 c2 -153 -1 -204 -10 -211 -7 -6 -43 -14 -80 -18 l-68 -7 0 211 0 210 48
6 c26 3 54 8 62 10 45 10 45 10 48 -201z m-1648 -91 c77 -157 140 -290 140
-294 0 -11 -25 -17 -100 -24 l-65 -7 -18 36 c-13 29 -21 35 -39 32 -13 -3 -54
-8 -93 -11 -104 -10 -114 -13 -135 -55 -16 -32 -26 -39 -60 -44 -22 -3 -58 -9
-81 -12 -37 -6 -40 -4 -37 15 2 12 64 160 138 331 131 299 136 309 165 313 17
2 33 5 38 5 4 1 70 -127 147 -285z m1317 237 c50 -30 67 -73 65 -160 -3 -96 4
-127 29 -133 17 -5 20 -12 17 -44 -4 -46 -31 -63 -104 -63 -41 0 -55 5 -74 25
-22 23 -25 38 -30 138 -5 108 -6 112 -28 115 -13 2 -32 -4 -43 -14 -17 -15
-19 -32 -19 -150 0 -73 -3 -135 -7 -137 -5 -3 -41 -8 -80 -12 l-73 -7 0 134
c0 91 -4 138 -12 146 -18 18 -56 14 -78 -8 -18 -18 -20 -33 -20 -154 l0 -133
-52 -7 c-29 -3 -65 -6 -80 -6 l-28 0 0 160 c0 136 -2 160 -15 160 -24 0 -21
86 4 99 33 18 95 22 121 9 21 -11 30 -10 69 9 47 24 146 32 180 14 13 -7 31
-3 66 15 62 31 145 33 192 4z"/>
<path d="M974 817 c-22 -20 -29 -33 -29 -65 0 -48 18 -72 56 -72 49 0 73 41
67 116 -3 36 -6 39 -34 42 -22 2 -40 -4 -60 -21z"/>
<path d="M446 786 c-9 -22 -19 -51 -23 -64 -6 -24 -5 -24 38 -17 24 4 46 9 48
11 3 3 -7 28 -21 57 l-25 52 -17 -39z"/>
<path d="M1530 150 c0 -3 -7 -23 -15 -45 -9 -26 -14 -33 -15 -19 0 20 -30 44
-30 26 0 -5 -7 -17 -15 -28 -14 -19 -14 -18 -9 2 5 18 2 21 -20 19 -14 -2 -26
1 -26 7 0 7 -5 6 -14 -1 -10 -8 -16 -9 -21 -1 -3 5 -3 10 2 10 4 0 1 5 -9 10
-28 17 -43 2 -46 -44 l-3 -43 33 3 c18 2 43 5 56 8 35 8 51 -2 44 -27 -5 -20
-3 -20 23 6 22 21 31 25 41 16 13 -11 18 -5 15 14 -1 5 6 21 16 38 13 22 15
31 5 41 -7 7 -12 10 -12 8z m-187 -58 c-3 -12 -10 -22 -15 -22 -5 0 -7 3 -5 8
2 4 7 16 11 26 9 25 17 16 9 -12z m138 -19 c-12 -20 -14 -14 -5 12 4 9 9 14
11 11 3 -2 0 -13 -6 -23z m-106 -2 c-3 -6 -11 -11 -17 -11 -6 0 -6 6 2 15 14
17 26 13 15 -4z"/>
<path d="M1594 125 c-12 -8 -24 -12 -27 -9 -9 9 -36 -51 -29 -62 8 -11 52 -12
70 -1 6 5 12 4 12 -1 0 -5 15 -9 33 -8 28 2 32 5 31 28 -1 20 3 25 15 20 14
-5 14 -4 2 11 -9 12 -17 14 -25 7 -8 -6 -17 -3 -29 10 -20 24 -26 24 -53 5z
m0 -39 c-3 -15 -8 -25 -11 -23 -2 3 -1 17 3 31 3 15 8 25 11 23 2 -3 1 -17 -3
-31z m34 9 c-6 -14 -15 -25 -20 -25 -5 0 -7 3 -5 8 2 4 7 15 10 25 4 9 11 17
16 17 7 0 6 -9 -1 -25z m-67 -22 c-12 -20 -14 -14 -5 12 4 9 9 14 11 11 3 -2
0 -13 -6 -23z m106 2 c0 -8 -3 -13 -5 -10 -3 3 -11 0 -19 -6 -9 -8 -13 -8 -13
-1 0 6 5 14 10 17 6 4 8 11 5 16 -3 5 0 6 8 3 7 -2 14 -11 14 -19z"/>
</g>
</svg>
